<svg xmlns="http://www.w3.org/2000/svg" width="13.991" height="13.991" viewBox="0 0 13.991 13.991">
  <path id="c" d="M13.48.566a.519.519,0,0,0,.383-.219A.693.693,0,0,0,14-.062a12.479,12.479,0,0,0-1.723-6.4,12.748,12.748,0,0,0-4.566-4.566,12.479,12.479,0,0,0-6.4-1.723.693.693,0,0,0-.41.137.519.519,0,0,0-.219.383L.027-9.387a.617.617,0,0,0,.055.438.589.589,0,0,0,.328.3L3.473-7.336a.694.694,0,0,0,.41.041.549.549,0,0,0,.355-.232l1.34-1.641a9.611,9.611,0,0,1,2.857,2,10.046,10.046,0,0,1,1.982,2.844L8.777-2.961a.655.655,0,0,0-.219.342.682.682,0,0,0,.027.424L9.9.867a.6.6,0,0,0,.3.3.617.617,0,0,0,.438.055Z" transform="translate(14 1.241) rotate(180)" fill="#fff"/>
</svg>
