<svg xmlns="http://www.w3.org/2000/svg" xmlns:xlink="http://www.w3.org/1999/xlink" width="832.655" height="675.388" viewBox="0 0 832.655 675.388">
  <defs>
    <clipPath id="clip-path">
      <rect id="Rectangle_3" data-name="Rectangle 3" width="832.655" height="675.387" fill="#6c30ff"/>
    </clipPath>
  </defs>
  <g id="logo-icon" transform="translate(-283.673 -1879.944)">
    <g id="logo-icon-2" data-name="logo-icon" transform="translate(283.673 1879.944)">
      <path id="Path_1" data-name="Path 1" d="M307.651,309.26V438.78c10.453,38.333,36.054,42.89,36.054,42.89C575.989,248.615,910.242,348.947,910.242,348.947V285.432s-87.86-6.956-98.316-3.471c0,0-61.122-45.3-111.071-66.209,0,0,76.084,55.176,80.152,65.048,0,0-372.3-47.043-473.356,28.46" transform="translate(-207.498 49.58)" fill="#505e85"/>
      <path id="Path_2" data-name="Path 2" d="M380.323,479.449s95.269-188.761,401.629-209.088v65.05s2.03,29.038-29.915,45.881l-245.682,142.3s-23.814,14.52-56.92-2.326Z" transform="translate(-79.211 145.981)" fill="#505e85"/>
      <path id="Path_3" data-name="Path 3" d="M296.574,317.145s38.328-56.014,182.1-69.909c0,0,153.918-11.758,275.239,6.946,0,0-276.478-64.478-417.757-10.594,0,0-62.564,28.662-39.582,73.557" transform="translate(-236.006 60.801)" fill="#3083ff"/>
      <path id="Path_4" data-name="Path 4" d="M713.406,303.507l2.143,20.837s-6.559,9.261-9.645-24.7l-96.464-60.192,10.417,68.3s-10.03,14.277-20.834-71.767c0,0-104.566-70.227-133.118-74.085,0,0-94.15-20.837-147.785,46.686,0,0,50.162-27.009,121.546-35.5,0,0-5.788,42.445-15.049,58.649l-137.363,24.31-15.82,33.183s21.448-1.424,32.411,18.522c0,0-16.976,9.261-32.411,2.7,0,0,2.358,31.427,44.587,53.14,0,0,58.956-54.025,218.818-47.419,0,0,143.089,7.09,256.8,36.648Zm-345.431-5.879s5.235-32.652,45.279-32.652c0,0-1.847,32.343-45.279,32.652M451.447,231.4V184.58c.616-16.94,19.714-10.165,19.714-10.165l113.661,62.838,3.388,31.726Zm230.34,75.276s-50.588-19.105-55.162-26.1c0,0-1.883-5.384-2.154-20.991l57.316,34.176Z" transform="translate(-271.433 -50.842)" fill="#3083ff"/>
      <path id="Path_7" data-name="Path 7" d="M346.191,361l25.294,15.179,46.338-49-16.246-19.708s-35.158,22.5-55.386,53.525" transform="translate(-139.464 211.497)" fill="#505e85"/>
      <path id="Path_8" data-name="Path 8" d="M375.947,320l14.913,19.7,46.332-32.489-10.917-18.906Z" transform="translate(-86.937 177.668)" fill="#505e85"/>
      <path id="Path_9" data-name="Path 9" d="M405.125,295.526,415.243,314.7l50.6-23.436-7.455-16.243Z" transform="translate(-35.428 154.208)" fill="#505e85"/>
      <path id="Path_10" data-name="Path 10" d="M436.808,279.2l4.792,15.179,55.806-13.315-3.078-13.846s-46.869,7.72-57.521,11.982" transform="translate(20.501 140.44)" fill="#505e85"/>
      <path id="Path_11" data-name="Path 11" d="M469.646,266.581v12.25l58.32-4.8v-9.319Z" transform="translate(78.468 136.018)" fill="#505e85"/>
      <path id="Path_12" data-name="Path 12" d="M503.062,264.718v6.921h56.984V268.18Z" transform="translate(137.457 136.019)" fill="#505e85"/>
      <path id="Path_16" data-name="Path 16" d="M347.782,220.239S396.462,235.6,456.906,279.7c0,0,194.934-93.862,219.435-96.146l-117.5-61s-24.174-7.842-46.39,2.937Z" transform="translate(-136.655 -119.801)" fill="#505e85"/>
    </g>
    <g id="Group_19" data-name="Group 19" transform="translate(7 -6.9)">
      <g id="Group_16" data-name="Group 16" transform="translate(658.409 1964.889)">
        <g id="Shape_1" data-name="Shape 1" transform="translate(0 0)">
          <path id="Shape_1-2" data-name="Shape 1" d="M216.678,233.082h0c-.3-.005-30.553-.624-64.3-3.663-19.87-1.789-37.1-4.056-51.2-6.738-17.63-3.352-30.4-7.366-37.963-11.928a26.386,26.386,0,0,1-6.712-6.445,27.406,27.406,0,0,1-2.315-3.639c.134.038,15.211,4.22,38.955,8.283a579.261,579.261,0,0,0,95.7,8.284c4.205,0,7.18-.556,9.094-1.7a6.462,6.462,0,0,0,2.943-4.063H177.561a31.273,31.273,0,0,1-7.922-3.488,29.62,29.62,0,0,1-6.491-5.3,25.288,25.288,0,0,1-5.146-8.5c-1.1-3.045-1.9-5.153-2.553-6.847-2.292-5.986-2.336-6.1-4.97-21.245-1.59-9.071-.9-10.336,3.01-12.245a12.321,12.321,0,0,1,5.1-.874,22.709,22.709,0,0,1,7.87,1.392,10.707,10.707,0,0,1,5.837,4.524c.4.727.776,5.87,1.215,11.825v.006c.616,8.348,1.383,18.734,2.545,22.024.181.512.347,1.041.508,1.552l0,.014c.819,2.607,1.665,5.3,4.826,7.412,3.565,2.381,9.694,3.685,18.735,3.988l-.023-.118c-1.643-8.874-16.085-87.192-17.279-104.328-.249-2.714-2.3-5.16-6.1-7.271A49.778,49.778,0,0,0,164.363,89.6a126.233,126.233,0,0,0-17.645-2.741c-.06-.01-6.072-.986-16.572-1.959-9.651-.894-25.131-1.959-44.071-1.959-10.87,0-21.851.348-32.638,1.035-12.108,1.13-19.7,7.593-20.311,17.288-.642,10.189-1.522,24.142,4.514,68.43l-.01-.021a205.161,205.161,0,0,1-7.244-25.02A278.781,278.781,0,0,1,25.457,116.8a270.452,270.452,0,0,1-2.112-34.991c0-.008.018-.838,1.536-1.932,1.4-1.007,4.388-2.445,10.7-3.582A327.859,327.859,0,0,1,72.3,71.672c7.063-.488,15-.746,22.952-.746a360.867,360.867,0,0,1,47.564,3.067c18.171,2.463,33.91,6.307,46.781,11.424.029.258,3.007,27.145,7.845,58.847,4.445,29.125,11.391,68.176,19.237,88.818Zm16.237-4.115a8.007,8.007,0,0,1-4.629-1.307,8.719,8.719,0,0,1-3.33-5.384c-.049-.169-5-17.16-10.219-41.819-3.07-14.506-5.635-28.806-7.625-42.5-2.487-17.121-4.077-33.343-4.725-48.216h1.5c.038.184,4.258,20.631,9.819,43.9,5.1,21.348,12.37,49.305,18.014,61.267.462.981.885,1.982,1.294,2.95,2.164,5.123,4.209,9.962,11.385,9.962,3.185,0,7.158-.925,12.147-2.828,19.675-7.5,152.877-54.988,154.217-55.465a7.335,7.335,0,0,1-1.773,3.4,19.382,19.382,0,0,1-3.819,3.465,39.667,39.667,0,0,1-7.2,3.936c-11.978,5.178-154.15,65.144-160.2,67.694l-.037.016A14.136,14.136,0,0,1,232.914,228.967Zm22.4-35.259a21.345,21.345,0,0,1-8.755-1.616,14.922,14.922,0,0,1-5.634-4.334c-2.956-3.625-4.552-8.541-6.242-13.746l-.011-.033c-.226-.695-.459-1.413-.694-2.125-2.149-6.491-5.977-19.212-9.3-31.8-2.917-11.038-6.543-26.1-7.246-35.188.105.274,11.176,29,21.52,48.539a72.6,72.6,0,0,0,11.58,15.569c3.8,3.927,10.472,5.918,19.84,5.918,12.668,0,25.916-3.719,26.048-3.757l98.548-22.33c-.015.008-.1.04-.261.1-5.883,2.168-36.777,13.519-67.355,24.143-15.2,5.283-30.008,10.151-41.685,13.708-12.927,3.938-21.955,6.258-26.108,6.711A39.41,39.41,0,0,1,255.318,193.708ZM39.9,181.938H24.1a16,16,0,0,1-3.219-1.2,28.122,28.122,0,0,1-7.371-5.239,39.18,39.18,0,0,1-8.094-11.745A67.149,67.149,0,0,1,.024,143.041a5.039,5.039,0,0,1,1.8-4.133,10.458,10.458,0,0,1,4.216-2.35,5.966,5.966,0,0,1,1.748-.252,7.115,7.115,0,0,1,6.528,4.574,56.318,56.318,0,0,1,1.981,8.076c1.655,8,3.92,18.95,7.8,22.9a22.652,22.652,0,0,0,9.654,5.412,29.1,29.1,0,0,0,5.391,1.072l.752,3.6ZM189.6,73.171h0c-.026-.021-2.621-2.121-7.391-5.229A173.467,173.467,0,0,0,161.763,56.6c-3.023-1.425-5.8-2.847-8.488-4.222-11.66-5.967-21.73-11.121-41.893-11.121-2.39,0-4.928.073-7.545.217-2.794.154-5.589.291-8.292.424h-.017c-9.125.449-17.744.873-25.833,1.858-3.31.4-6.163.513-8.68.611-9.919.384-15.906.616-31.653,17.276l-1.035,2.03a8.052,8.052,0,0,1-1.535,1.645A13.822,13.822,0,0,1,21.558,68a.46.46,0,0,1,0-.053c-.045-1.556-.258-9.767-.015-18.64.156-5.7.467-10.566.924-14.455.571-4.862,1.374-8.206,2.386-9.94a45.667,45.667,0,0,1,13.522-14,54.613,54.613,0,0,1,12.291-6.3A62.292,62.292,0,0,1,66.977,1.138C76.454.383,93.038,0,116.269,0c19.848,0,38.609.282,45.672.388l2.1.031a15,15,0,0,1,7.012,1.89,23.3,23.3,0,0,1,5.769,4.6,58.79,58.79,0,0,1,8.249,12.172c-.174-.249-1.154-1.127-6.514-1.949-6.876-1.055-17.963-1.589-32.955-1.589C121,15.546,86.7,17,43.656,19.867a14.894,14.894,0,0,0-5.946,2.889c-2.5,1.993-5.451,5.216-5.341,9.25,0,.035,0,.07,0,.105.018.435.3.621.94.621a28.7,28.7,0,0,0,4.428-.763c3.01-.635,7.556-1.6,14.166-2.553,15.2-2.2,34.032-3.316,55.987-3.316,15.608,0,32.973.568,51.614,1.688l15.8,1.441a13.838,13.838,0,0,1,5.5,2.118,13.566,13.566,0,0,1,4.073,4.114,17.211,17.211,0,0,1,2.458,7.454L189.6,73.169Z" transform="translate(410.767 233.082) rotate(180)" fill="#ee8344"/>
        </g>
        <path id="Path_112" data-name="Path 112" d="M1684.521,67.951l177.412,43.981-26.187-67.116L1814.77,35.2" transform="translate(-1668.58 16.294)" fill="#ee8344"/>
      </g>
      <path id="Path_115" data-name="Path 115" d="M0,0,203.615,97.407l-7.669-45.346Z" transform="matrix(0.998, 0.07, -0.07, 0.998, 666.375, 2064.224)" fill="#ee8344"/>
      <g id="Group_18" data-name="Group 18" transform="translate(879.301 2125.049)">
        <path id="Path_117" data-name="Path 117" d="M21.684.144,47.147,16.639A22.767,22.767,0,0,1,69.914,39.405l2.525-6.1A22.767,22.767,0,0,1,49.673,56.073H22.767A22.767,22.767,0,0,1,0,33.307V10.54C0-2.034,9.111.144,21.684.144Z" transform="translate(1.439 18.571) rotate(-5)" fill="#ee8344"/>
        <path id="Path_118" data-name="Path 118" d="M-511.007,2133.022s.379,6.162.046,14.743c-.6,21.947-.117,29.511-31.545,40.771-43.969,9.4-24.474-22.073-24.474-22.073Z" transform="translate(678.756 -2119.19)" fill="#ee8344"/>
        <rect id="Rectangle_49" data-name="Rectangle 49" width="72" height="28" transform="translate(54.699 35.851)" fill="#ee8344"/>
        <path id="Path_119" data-name="Path 119" d="M-675.137,2119.656s71.738,33.458,167.789,5.085c.5,0-3.422,27.8-3.422,27.8l-128.74,8.02Z" transform="translate(675.137 -2119.656)" fill="#ee8344"/>
        <ellipse id="Ellipse_1" data-name="Ellipse 1" cx="8.5" cy="8" rx="8.5" ry="8" transform="translate(25.699 33.851)" fill="#fff"/>
        <circle id="Ellipse_3" data-name="Ellipse 3" cx="5" cy="5" r="5" transform="translate(46.699 37.851)" fill="#fff"/>
        <g id="Group_17" data-name="Group 17" transform="translate(139.846 29.332)">
          <ellipse id="Ellipse_5" data-name="Ellipse 5" cx="8" cy="8.5" rx="8" ry="8.5" transform="translate(14.852 -0.481)" fill="#fff"/>
          <circle id="Ellipse_4" data-name="Ellipse 4" cx="5" cy="5" r="5" transform="translate(-0.148 4.519)" fill="#fff"/>
        </g>
      </g>
    </g>
  </g>
</svg>
