<svg xmlns="http://www.w3.org/2000/svg" width="38.877" height="38.875" viewBox="0 0 38.877 38.875">
  <g id="m-icon" transform="translate(0.003)">
    <path id="Path_107" data-name="Path 107" d="M28.515,29.02l-8.5-15.388A1.227,1.227,0,0,0,18.926,13a1.207,1.207,0,0,0-1.069.664L16.48,16.353l6.447,11.468a3.6,3.6,0,0,1,.243,3h4.276a1.223,1.223,0,0,0,1.053-.6,1.259,1.259,0,0,0,.016-1.2Z" transform="translate(10.216 8.057)" fill="#ee8344"/>
    <path id="Path_108" data-name="Path 108" d="M31.021,28.167,23.262,14.35l-3.094,2.624a3.646,3.646,0,0,1-2.349.858,3.6,3.6,0,0,1-2.43-.923,3.6,3.6,0,0,1-2.43.923,3.649,3.649,0,0,1-2.365-.875L7.647,14.463l-7.5,13.72a1.216,1.216,0,0,0,.016,1.2,1.244,1.244,0,0,0,1.053.6H29.968a1.223,1.223,0,0,0,1.053-.6A1.247,1.247,0,0,0,31.021,28.167Z" transform="translate(0 8.894)" fill="#ee8344"/>
    <path id="Path_109" data-name="Path 109" d="M19.279,8.1H9.965A1.215,1.215,0,0,1,8.75,6.884V1.215A1.215,1.215,0,0,1,9.965,0h9.314A1.216,1.216,0,0,1,20.2,2.007L18.449,4.049,20.2,6.094A1.214,1.214,0,0,1,19.279,8.1Z" transform="translate(5.425)" fill="#ee8344"/>
    <path id="Path_110" data-name="Path 110" d="M9.965,12.958A1.215,1.215,0,0,1,8.75,11.743V1.215a1.215,1.215,0,0,1,2.43,0V11.743A1.215,1.215,0,0,1,9.965,12.958Z" transform="translate(5.425)" fill="#ee8344"/>
    <path id="Path_111" data-name="Path 111" d="M18.668,17.063l-3.45,2.916a1.2,1.2,0,0,1-1.636-.065L12.01,18.343l-1.571,1.571a1.2,1.2,0,0,1-1.636.065L5.45,17.16l1.2-2.171,4.292-7.856A1.207,1.207,0,0,1,12.01,6.5a1.131,1.131,0,0,1,1.053.616l4.39,7.791Z" transform="translate(3.38 4.027)" fill="#ee8344"/>
  </g>
</svg>
