<svg xmlns="http://www.w3.org/2000/svg" width="14" height="14" viewBox="0 0 14 14">
  <path id="m" d="M14,.438V-6.754a1.246,1.246,0,0,0-.492-1.039Q12.387-8.668,9-11.129L8.75-11.32a5.435,5.435,0,0,0-.875-.6A1.746,1.746,0,0,0,7-12.25a1.746,1.746,0,0,0-.875.328,5.435,5.435,0,0,0-.875.6L5-11.129Q1.613-8.668.492-7.793A1.246,1.246,0,0,0,0-6.754V.438a1.266,1.266,0,0,0,.383.93,1.266,1.266,0,0,0,.93.383H12.688a1.266,1.266,0,0,0,.93-.383A1.266,1.266,0,0,0,14,.438ZM12.2-4.949l.246.383a.167.167,0,0,1,.041.15.257.257,0,0,1-.068.15l-3.172,2.3A7.635,7.635,0,0,1,8.2-1.258,2.427,2.427,0,0,1,7-.875a2.427,2.427,0,0,1-1.2-.383,7.635,7.635,0,0,1-1.039-.711l-3.172-2.3a.257.257,0,0,1-.068-.15.167.167,0,0,1,.041-.15L1.8-4.949a.343.343,0,0,1,.137-.082A.181.181,0,0,1,2.105-5L5.25-2.68a5.435,5.435,0,0,0,.875.6A1.746,1.746,0,0,0,7-1.75a1.745,1.745,0,0,0,.875-.328,5.435,5.435,0,0,0,.875-.6L11.895-5a.181.181,0,0,1,.164-.027A.343.343,0,0,1,12.2-4.949Z" transform="translate(0 12.25)" fill="#fff"/>
</svg>
