<svg xmlns="http://www.w3.org/2000/svg" width="45.881" height="39.057" viewBox="0 0 45.881 39.057">
  <g id="v-icon" transform="translate(0 -36.3)">
    <g id="Group_15" data-name="Group 15" transform="translate(0 36.3)">
      <path id="Path_104" data-name="Path 104" d="M292.743,41.047a10.841,10.841,0,0,1,4.343-.921,10.063,10.063,0,0,1,2.472.3.46.46,0,0,0,.564-.508l-.113-.9h0c-.094-1.5-1.814-2.717-3.873-2.717-2.115,0-4.136,1.269-4.136,2.839l.094,1.5A.467.467,0,0,0,292.743,41.047Z" transform="translate(-264.552 -36.3)" fill="#ee8344"/>
      <path id="Path_105" data-name="Path 105" d="M45.806,116.555l-.047-.273c0-.019-.009-.038-.009-.056l-1.739-8.836a6.586,6.586,0,0,0-3.873-4.916l-.827-6.42c0-2.726-3.083-4.954-6.777-4.954s-7.21,2.209-7.21,4.944a2.922,2.922,0,0,0,.028.4l.047.7a7.3,7.3,0,0,0-2.453-.414,7.179,7.179,0,0,0-2.472.423l.047-.7a2.823,2.823,0,0,0,.028-.4c0-2.726-3.525-4.944-7.21-4.944s-6.777,2.228-6.777,4.954l-.827,6.42a6.571,6.571,0,0,0-3.873,4.916L.122,116.226c0,.019-.009.038-.009.056l-.047.273h0a6.428,6.428,0,0,0-.066.855c0,4.192,4.39,7.6,9.795,7.6s9.795-3.4,9.795-7.6h0v-3.478a7.99,7.99,0,0,0,3.356.705,8.091,8.091,0,0,0,3.346-.7v3.469h0c0,4.192,4.39,7.6,9.795,7.6s9.795-3.4,9.795-7.6A8.5,8.5,0,0,0,45.806,116.555ZM9.795,122.27c-3.826,0-7.059-2.228-7.059-4.86s3.234-4.86,7.059-4.86,7.059,2.228,7.059,4.86S13.621,122.27,9.795,122.27Zm13.151-10.039c-1.607,0-2.914-.912-2.914-2.03s1.307-2.03,2.914-2.03,2.914.912,2.914,2.03S24.553,112.231,22.945,112.231ZM36.077,122.27c-3.826,0-7.059-2.228-7.059-4.86s3.234-4.86,7.059-4.86,7.059,2.228,7.059,4.86S39.9,122.27,36.077,122.27Z" transform="translate(0 -85.949)" fill="#ee8344"/>
      <path id="Path_106" data-name="Path 106" d="M109.942,40.517a10.119,10.119,0,0,1,2.472-.3,10.807,10.807,0,0,1,4.343.921.456.456,0,0,0,.639-.395l.094-1.5c0-1.57-2.021-2.839-4.136-2.839-2.059,0-3.769,1.213-3.873,2.717h0l-.113.9A.461.461,0,0,0,109.942,40.517Z" transform="translate(-99.085 -36.391)" fill="#ee8344"/>
    </g>
  </g>
</svg>
